# xmcd
#
# Track frame offsets:
#	150
#	29665
#	53100
#	80587
#	104745
#	135242
#	164850
#	212930
#	243900
#	286425
#
# Disc length: 4289 seconds
#
# Revision: 0
# Processed by: cddbd v1.4b42PL1 Copyright (c) Steve Scherf et al.
# Submitted via: dBpowerAMP V4.0
#
DISCID=9810bf0a
DTITLE=Finnen and Lang - Live at the Vineyard
DYEAR=1900
DGENRE=
TTITLE0=Winged Messenger
TTITLE1=From Galway to Graceland
TTITLE2=Trouble No More
TTITLE3=Comin' in on a Wing and a Prayer
TTITLE4=Ravenswood
TTITLE5=Are You Experienced
TTITLE6=Rag Bag
TTITLE7=Scream
TTITLE8=African Market Place
TTITLE9=Gonna Send You Back to Georgia
EXTD=
EXTT0=
EXTT1=
EXTT2=
EXTT3=
EXTT4=
EXTT5=
EXTT6=
EXTT7=
EXTT8=
EXTT9=
PLAYORDER=
